HIERARCHY
ROOT Hips
{
  OFFSET 0.849866 78.6569 -0.536788
  CHANNELS 6 Xposition Yposition Zposition Zrotation Xrotation Yrotation
  JOINT Bip01_Pelvis
  {
    OFFSET 0 0 0
    CHANNELS 6 Xposition Yposition Zposition Zrotation Xrotation Yrotation
    JOINT BN_Tail_01
    {
      OFFSET -5.52397 -0.332285 0
      CHANNELS 6 Xposition Yposition Zposition Zrotation Xrotation Yrotation
      JOINT BN_Tail_02
      {
        OFFSET 6.48885 -2.032e-005 0
        CHANNELS 6 Xposition Yposition Zposition Zrotation Xrotation Yrotation
        JOINT BN_Tail_03
        {
          OFFSET 7.08759 1.016e-005 -0.00261112
          CHANNELS 6 Xposition Yposition Zposition Zrotation Xrotation Yrotation
          End Site
          {
            OFFSET 0 0 0
          }
        }
      }
    }
    JOINT Bip01_Spine
    {
      OFFSET 4.02227 0.398968 0
      CHANNELS 6 Xposition Yposition Zposition Zrotation Xrotation Yrotation
      JOINT BN_UpperArm_R_01
      {
        OFFSET 4.84413 -3.22857 -3.65581
        CHANNELS 6 Xposition Yposition Zposition Zrotation Xrotation Yrotation
        JOINT BN_Forearm_R_01
        {
          OFFSET 8.51614 0 0
          CHANNELS 6 Xposition Yposition Zposition Zrotation Xrotation Yrotation
          JOINT BN_hand_R_01
          {
            OFFSET 10.1924 0 0
            CHANNELS 6 Xposition Yposition Zposition Zrotation Xrotation Yrotation
            JOINT BN_Finger_R_02
            {
              OFFSET 14.5949 -1.43855 0.585079
              CHANNELS 6 Xposition Yposition Zposition Zrotation Xrotation Yrotation
              End Site
              {
                OFFSET 0 0 0
              }
            }
            JOINT BN_Finger_R_01
            {
              OFFSET 14.4623 0 0
              CHANNELS 6 Xposition Yposition Zposition Zrotation Xrotation Yrotation
              End Site
              {
                OFFSET 0 0 0
              }
            }
          }
        }
      }
      JOINT BN_UpperArm_L_01
      {
        OFFSET 4.84412 -3.22858 3.65557
        CHANNELS 6 Xposition Yposition Zposition Zrotation Xrotation Yrotation
        JOINT BN_Forearm_L_01
        {
          OFFSET 8.51611 0 0
          CHANNELS 6 Xposition Yposition Zposition Zrotation Xrotation Yrotation
          JOINT BN_hand_L_01
          {
            OFFSET 10.1924 0 0
            CHANNELS 6 Xposition Yposition Zposition Zrotation Xrotation Yrotation
            JOINT BN_Finger_L_01
            {
              OFFSET 14.4623 0 0
              CHANNELS 6 Xposition Yposition Zposition Zrotation Xrotation Yrotation
              End Site
              {
                OFFSET 0 0 0
              }
            }
            JOINT BN_Finger_L_02
            {
              OFFSET 14.5949 1.43855 0.585071
              CHANNELS 6 Xposition Yposition Zposition Zrotation Xrotation Yrotation
              End Site
              {
                OFFSET 0 0 0
              }
            }
          }
        }
      }
      JOINT Bip01_R_Thigh
      {
        OFFSET -4.03411 -0.254132 -3.45377
        CHANNELS 6 Xposition Yposition Zposition Zrotation Xrotation Yrotation
        JOINT Bip01_R_Calf
        {
          OFFSET 3.92618 0 0
          CHANNELS 6 Xposition Yposition Zposition Zrotation Xrotation Yrotation
          JOINT Bip01_R_HorseLink
          {
            OFFSET 6.12319 0 0
            CHANNELS 6 Xposition Yposition Zposition Zrotation Xrotation Yrotation
            JOINT Bip01_R_Foot
            {
              OFFSET 9.94776 0 0
              CHANNELS 6 Xposition Yposition Zposition Zrotation Xrotation Yrotation
              JOINT Bip01_R_Toe3
              {
                OFFSET 0.881252 -0.110953 0.0158496
                CHANNELS 6 Xposition Yposition Zposition Zrotation Xrotation Yrotation
                JOINT Bip01_R_Toe31
                {
                  OFFSET 2.32137 0 0
                  CHANNELS 6 Xposition Yposition Zposition Zrotation Xrotation Yrotation
                  JOINT Bip01_R_Toe32
                  {
                    OFFSET 1.63293 0 0
                    CHANNELS 6 Xposition Yposition Zposition Zrotation Xrotation Yrotation
                    JOINT Bip01_R_Toe3Nub
                    {
                      OFFSET 1.72131 0 0
                      CHANNELS 6 Xposition Yposition Zposition Zrotation Xrotation Yrotation
                      End Site
                      {
                        OFFSET 0 0 0
                      }
                    }
                  }
                }
              }
              JOINT Bip01_R_Toe2
              {
                OFFSET 0.994751 0.967285 -1.09428
                CHANNELS 6 Xposition Yposition Zposition Zrotation Xrotation Yrotation
                JOINT Bip01_R_Toe21
                {
                  OFFSET 2.20201 0 0
                  CHANNELS 6 Xposition Yposition Zposition Zrotation Xrotation Yrotation
                  JOINT Bip01_R_Toe22
                  {
                    OFFSET 1.84925 0 0
                    CHANNELS 6 Xposition Yposition Zposition Zrotation Xrotation Yrotation
                    JOINT Bip01_R_Toe2Nub
                    {
                      OFFSET 1.70976 0 0
                      CHANNELS 6 Xposition Yposition Zposition Zrotation Xrotation Yrotation
                      End Site
                      {
                        OFFSET 0 0 0
                      }
                    }
                  }
                }
              }
              JOINT Bip01_R_Toe1
              {
                OFFSET 1.3748 1.34027 -0.0712419
                CHANNELS 6 Xposition Yposition Zposition Zrotation Xrotation Yrotation
                JOINT Bip01_R_Toe11
                {
                  OFFSET 2.26122 0 0
                  CHANNELS 6 Xposition Yposition Zposition Zrotation Xrotation Yrotation
                  JOINT Bip01_R_Toe12
                  {
                    OFFSET 2.22215 0 0
                    CHANNELS 6 Xposition Yposition Zposition Zrotation Xrotation Yrotation
                    JOINT Bip01_R_Toe1Nub
                    {
                      OFFSET 1.61867 0 0
                      CHANNELS 6 Xposition Yposition Zposition Zrotation Xrotation Yrotation
                      End Site
                      {
                        OFFSET 0 0 0
                      }
                    }
                  }
                }
              }
              JOINT Bip01_R_Toe0
              {
                OFFSET 1.40695 0.687986 0.883783
                CHANNELS 6 Xposition Yposition Zposition Zrotation Xrotation Yrotation
                JOINT Bip01_R_Toe01
                {
                  OFFSET 2.26828 0 0
                  CHANNELS 6 Xposition Yposition Zposition Zrotation Xrotation Yrotation
                  JOINT Bip01_R_Toe02
                  {
                    OFFSET 2.09769 0 0
                    CHANNELS 6 Xposition Yposition Zposition Zrotation Xrotation Yrotation
                    JOINT Bip01_R_Toe0Nub
                    {
                      OFFSET 1.53753 0 0
                      CHANNELS 6 Xposition Yposition Zposition Zrotation Xrotation Yrotation
                      End Site
                      {
                        OFFSET 0 0 0
                      }
                    }
                  }
                }
              }
            }
          }
        }
      }
      JOINT Bip01_L_Thigh
      {
        OFFSET -4.03411 -0.254147 3.45377
        CHANNELS 6 Xposition Yposition Zposition Zrotation Xrotation Yrotation
        JOINT Bip01_L_Calf
        {
          OFFSET 3.92616 0 0
          CHANNELS 6 Xposition Yposition Zposition Zrotation Xrotation Yrotation
          JOINT Bip01_L_HorseLink
          {
            OFFSET 6.1232 0 0
            CHANNELS 6 Xposition Yposition Zposition Zrotation Xrotation Yrotation
            JOINT Bip01_L_Foot
            {
              OFFSET 9.94775 0 0
              CHANNELS 6 Xposition Yposition Zposition Zrotation Xrotation Yrotation
              JOINT Bip01_L_Toe3
              {
                OFFSET 0.881246 -0.110986 -0.0157582
                CHANNELS 6 Xposition Yposition Zposition Zrotation Xrotation Yrotation
                JOINT Bip01_L_Toe31
                {
                  OFFSET 2.32136 0 0
                  CHANNELS 6 Xposition Yposition Zposition Zrotation Xrotation Yrotation
                  JOINT Bip01_L_Toe32
                  {
                    OFFSET 1.63293 0 0
                    CHANNELS 6 Xposition Yposition Zposition Zrotation Xrotation Yrotation
                    JOINT Bip01_L_Toe3Nub
                    {
                      OFFSET 1.7213 0 0
                      CHANNELS 6 Xposition Yposition Zposition Zrotation Xrotation Yrotation
                      End Site
                      {
                        OFFSET 0 0 0
                      }
                    }
                  }
                }
              }
              JOINT Bip01_L_Toe2
              {
                OFFSET 0.994649 0.967162 1.09447
                CHANNELS 6 Xposition Yposition Zposition Zrotation Xrotation Yrotation
                JOINT Bip01_L_Toe21
                {
                  OFFSET 2.202 0 0
                  CHANNELS 6 Xposition Yposition Zposition Zrotation Xrotation Yrotation
                  JOINT Bip01_L_Toe22
                  {
                    OFFSET 1.84926 0 0
                    CHANNELS 6 Xposition Yposition Zposition Zrotation Xrotation Yrotation
                    JOINT Bip01_L_Toe2Nub
                    {
                      OFFSET 1.70976 0 0
                      CHANNELS 6 Xposition Yposition Zposition Zrotation Xrotation Yrotation
                      End Site
                      {
                        OFFSET 0 0 0
                      }
                    }
                  }
                }
              }
              JOINT Bip01_L_Toe1
              {
                OFFSET 1.37483 1.34021 0.0715086
                CHANNELS 6 Xposition Yposition Zposition Zrotation Xrotation Yrotation
                JOINT Bip01_L_Toe11
                {
                  OFFSET 2.26124 0 0
                  CHANNELS 6 Xposition Yposition Zposition Zrotation Xrotation Yrotation
                  JOINT Bip01_L_Toe12
                  {
                    OFFSET 2.22214 0 0
                    CHANNELS 6 Xposition Yposition Zposition Zrotation Xrotation Yrotation
                    JOINT Bip01_L_Toe1Nub
                    {
                      OFFSET 1.61867 0 0
                      CHANNELS 6 Xposition Yposition Zposition Zrotation Xrotation Yrotation
                      End Site
                      {
                        OFFSET 0 0 0
                      }
                    }
                  }
                }
              }
              JOINT Bip01_L_Toe0
              {
                OFFSET 1.40707 0.688009 -0.883564
                CHANNELS 6 Xposition Yposition Zposition Zrotation Xrotation Yrotation
                JOINT Bip01_L_Toe01
                {
                  OFFSET 2.26828 0 0
                  CHANNELS 6 Xposition Yposition Zposition Zrotation Xrotation Yrotation
                  JOINT Bip01_L_Toe02
                  {
                    OFFSET 2.0977 0 0
                    CHANNELS 6 Xposition Yposition Zposition Zrotation Xrotation Yrotation
                    JOINT Bip01_L_Toe0Nub
                    {
                      OFFSET 1.53752 0 0
                      CHANNELS 6 Xposition Yposition Zposition Zrotation Xrotation Yrotation
                      End Site
                      {
                        OFFSET 0 0 0
                      }
                    }
                  }
                }
              }
            }
          }
        }
      }
      JOINT Bip01_Spine1
      {
        OFFSET 4.90674 -0.00437896 0
        CHANNELS 6 Xposition Yposition Zposition Zrotation Xrotation Yrotation
        JOINT Bip01_Neck
        {
          OFFSET 5.56447 -1.28357 0
          CHANNELS 6 Xposition Yposition Zposition Zrotation Xrotation Yrotation
          JOINT Bip01_Neck1
          {
            OFFSET 2.79308 -0.00219964 0
            CHANNELS 6 Xposition Yposition Zposition Zrotation Xrotation Yrotation
            JOINT Bip01_Head
            {
              OFFSET 2.79272 0 0
              CHANNELS 6 Xposition Yposition Zposition Zrotation Xrotation Yrotation
              JOINT BN_Mouth_01
              {
                OFFSET 4.19089 0.0665938 0
                CHANNELS 6 Xposition Yposition Zposition Zrotation Xrotation Yrotation
                End Site
                {
                  OFFSET 0 0 0
                }
              }
              JOINT Bip01_HeadNub
              {
                OFFSET 6.95118 0 0
                CHANNELS 6 Xposition Yposition Zposition Zrotation Xrotation Yrotation
                End Site
                {
                  OFFSET 0 0 0
                }
              }
            }
          }
        }
      }
    }
  }
}
MOTION
Frames:	3
Frame Time:	0.0333333
0.849866 91.44 0 175.059 -90 -90 0 0 0 -89.9987 6.19063 -89.9989 -5.52396 -0.332276 1.16415e-010 3.60574 -0.00141907 179.96 6.48885 0 -0.00446786 -23.8118 -2.55622e-009 8.49779e-010 7.08759 -7.6294e-006 -0.00440436 -24.1121 -0.0263749 0.0229731 4.02166 0.398873 1.16415e-010 1.6647 1.14534e-017 -5.21095e-011 4.84413 -3.22852 -3.65581 -83.068 -13.521 37.8433 8.51611 3.57628e-007 3.8147e-006 36.3245 -0.000677452 -25.3968 10.1924 -7.62941e-006 1.90735e-006 -30.9483 0.690136 -19.1549 14.5949 -1.43856 0.585077 -48.299 -1.49205 18.0223 14.4623 2.66454e-015 -1.90735e-006 -2.99747 -0.000244103 16.6477 4.84413 -3.22854 3.65557 97.9499 -13.3783 -142.159 8.51612 2.38419e-007 -1.14441e-005 -36.3245 0.000674763 -25.3968 10.1924 0 1.90735e-006 30.9483 -0.690141 -19.1549 14.4624 9.53676e-007 0 2.99747 0.000242812 16.6477 14.5949 1.43855 0.585071 48.299 1.49205 18.0222 -4.03158 -0.281647 -3.45377 -105.442 2.32243 -173.475 3.92617 -3.55272e-015 1.77636e-015 -73.4114 -4.99622e-006 -1.68722e-005 6.1232 -1.42109e-014 1.77636e-015 130.557 -6.12326e-006 -7.52802e-006 9.94776 0 -0.00138903 -109.216 17.7818 4.96753 0.881226 -0.110997 0.0158143 168.344 -4.50351 -178.979 2.32136 7.62946e-006 -4.76837e-007 44.4425 -3.05046e-008 5.11893e-007 1.63293 7.62949e-006 -4.76837e-007 -102.598 -2.80742e-006 1.07517e-005 1.7213 9.53695e-007 0 2.13566e-008 3.21326e-006 -5.63342e-007 0.994697 0.96708 -1.09449 26.5396 -25.6137 10.3145 2.20201 -4.76842e-007 1.90735e-006 40.0408 0.00599413 0.0164199 1.84925 -3.81475e-006 1.90735e-006 -35.3034 0.00211523 -0.00665668 1.70977 3.57634e-007 0 -1.39149e-007 1.21457e-007 1.94056e-008 1.37481 1.34021 -0.0715313 31.7106 2.29249 -1.41477 2.26124 7.74869e-007 0 31.1828 8.1623e-006 -4.78659e-006 2.22213 -7.10552e-015 0 -38.5073 -4.58535e-007 2.97252e-007 1.61867 -3.55277e-015 -4.76837e-007 1.92771e-007 1.19245e-005 1.23267e-007 1.407 0.688078 0.88359 41.5207 24.9845 -20.5047 2.26826 0 -1.90735e-006 29.1617 0.00352624 0.0135363 2.0977 -3.81475e-006 3.8147e-006 -61.0221 8.65102e-006 7.2748e-006 1.53753 -3.81478e-006 -3.8147e-006 -1.06406e-006 1.09717e-005 -1.52916e-007 -4.03159 -0.281662 3.45377 -121.605 -0.257005 176.588 3.92616 -3.8147e-006 -1.78814e-007 -109.325 -9.74557e-006 -2.65916e-006 6.1232 -7.62942e-006 4.44089e-016 120.14 -2.03903e-005 -5.24261e-008 9.94775 0 1.19209e-007 -74.1367 -14.9714 -4.79272 0.881249 -0.11097 -0.0158293 155.892 4.56296 179.948 2.32135 -3.81474e-006 -9.53674e-007 44.4425 -2.20447e-006 5.98307e-007 1.63294 0 0 -43.526 3.57632e-006 1.93736e-006 1.72131 7.62954e-006 0 179.96 0.00026285 0.000809704 0.994736 0.967278 1.09431 35.8042 23.7813 -14.1931 2.20201 1.77638e-015 0 40.0409 -3.88698e-006 8.80713e-007 1.84926 -7.6295e-006 -1.77636e-015 -72.6411 -7.27717e-006 8.94747e-006 1.70975 1.90739e-006 9.53674e-007 179.96 1.85255e-005 -0.000882045 1.37481 1.34026 0.07128 40.3258 -2.0544 1.74184 2.26124 0 0 31.1828 -1.56821e-006 1.01151e-006 2.22212 -7.6295e-006 -4.76837e-007 -38.5073 6.82071e-006 6.50983e-006 1.61867 -9.53691e-007 0 -179.96 -0.000453195 -0.000759926 1.40699 0.687967 -0.883747 50.2045 -21.7173 23.9519 2.26829 -1.90737e-006 3.55271e-015 29.1653 9.96463e-006 -1.12331e-007 2.09769 -7.10553e-015 5.72204e-006 -61.0221 1.33494e-006 2.59365e-006 1.53752 -9.53696e-007 -5.72204e-006 -179.96 -0.00011473 -0.000639105 4.90624 -0.00436402 -4.33681e-019 -2.39223 1.00092e-005 4.18143e-007 5.56442 -1.28356 -8.67362e-019 2.36774 4.13865e-007 1.00093e-005 2.79239 -0.00223541 -4.33681e-019 -8.71634 8.38416e-006 1.14204e-005 2.79272 -2.28882e-005 -1.16415e-010 15.4588 9.65543e-006 -2.67023e-006 4.19088 0.0666047 4.33681e-019 -174.161 -0.0332031 -179.998 6.95117 -1.52588e-005 1.16415e-010 -2.72471e-009 0 -5.21102e-011 
0.849866 91.6364 -8.20363e-009 175.321 -90 -90 0 0 0 -89.9987 6.19063 -89.9989 -5.52396 -0.332276 1.16415e-010 1.9808 -0.000289917 179.96 6.48885 -1.42109e-014 -0.00446786 -23.2732 -2.64672e-009 7.3935e-010 7.08759 -7.6294e-006 -0.00440436 -26.6058 -0.0273495 0.0218038 4.02166 0.398873 1.16415e-010 1.82365 -1.01199e-012 -5.21344e-011 4.84413 -3.22852 -3.65581 -82.5609 -9.68706 40.8028 8.51611 3.57628e-007 3.8147e-006 36.5333 0.360533 -24.2843 10.1924 -7.62941e-006 1.90735e-006 -30.9082 0.672918 -22.6607 14.5949 -1.43856 0.585077 -42.8828 -3.16135 6.32356 14.4623 -8.88181e-016 -1.90735e-006 0.239215 -1.06425 7.53422 4.84413 -3.22854 3.65557 98.4716 -10.2953 -139.129 8.51612 2.38419e-007 -1.14441e-005 -36.3831 7.62051e-005 -24.2842 10.1924 7.10544e-015 1.90735e-006 30.9082 -0.672919 -22.6607 14.4624 9.53676e-007 7.10542e-015 -0.0355965 0.795587 7.53226 14.5949 1.43855 0.585071 43.9051 3.16012 6.26236 -4.03227 -0.271059 -3.45377 -105.94 2.30571 -173.393 3.92617 -1.06582e-014 -1.77636e-015 -73.4579 -4.98989e-006 -1.68884e-005 6.1232 5.68436e-014 8.88179e-016 129.692 -5.99363e-006 -7.62878e-006 9.94776 -2.41586e-013 -0.00138903 -108.9 17.8296 5.02197 0.881226 -0.110997 0.0158143 168.344 -4.50354 -178.979 2.32136 7.62946e-006 -4.76837e-007 44.0157 0.0139653 0.014454 1.63293 7.62949e-006 -4.76837e-007 -102.598 -0.000449344 -8.90337e-005 1.7213 9.53695e-007 0 2.13566e-008 3.21326e-006 -5.63342e-007 0.994697 0.96708 -1.09449 26.7334 -25.5829 10.3958 2.202 -4.76842e-007 1.90735e-006 39.6002 -0.0378435 -0.0363714 1.84925 -3.81475e-006 1.90735e-006 -35.2904 0.00994257 -0.017718 1.70977 3.57634e-007 0 -1.39149e-007 1.21457e-007 1.94056e-008 1.37481 1.34021 -0.0715313 31.8153 2.29066 -1.41774 2.26124 7.74869e-007 -1.77636e-015 30.7446 -0.02218 -0.0373074 2.22213 7.10552e-015 4.44089e-015 -38.4849 0.00446521 -0.00561684 1.61867 -3.55277e-015 -4.76837e-007 1.92771e-007 1.19245e-005 1.23267e-007 1.407 0.688078 0.88359 41.5939 24.9598 -20.5355 2.26826 -1.77638e-015 -1.90735e-006 28.9229 -0.00953426 -0.00998347 2.0977 -3.81475e-006 3.8147e-006 -61.0221 7.97613e-006 7.63263e-006 1.53753 -3.81478e-006 -3.8147e-006 -1.06406e-006 1.09717e-005 -1.52916e-007 -4.03227 -0.271056 3.45377 -122.058 -0.256954 176.682 3.92616 -3.8147e-006 -1.78814e-007 -109.533 -9.73307e-006 -2.70143e-006 6.1232 -7.62942e-006 1.33227e-015 120.32 -2.03799e-005 1.05267e-008 9.94775 -7.10546e-015 1.19209e-007 -75.045 -14.8408 -5.0146 0.881249 -0.11097 -0.0158293 156.017 4.58324 179.943 2.32135 -3.81474e-006 -9.53674e-007 44.1051 0.00446547 0.00461003 1.63294 0 1.77636e-015 -43.526 3.57957e-006 1.9436e-006 1.72131 7.62954e-006 -1.77636e-015 179.96 0.00026285 0.000809704 0.994736 0.967278 1.09431 35.8042 23.7813 -14.1931 2.20201 8.88188e-015 3.55271e-015 39.6764 2.06486e-006 8.11471e-006 1.84926 -7.6295e-006 1.77636e-015 -72.6411 -7.25999e-006 8.94995e-006 1.70975 1.90739e-006 9.53674e-007 179.96 1.85255e-005 -0.000882045 1.37481 1.34026 0.07128 40.3258 -2.0544 1.74184 2.26124 1.77638e-015 1.77636e-015 30.9205 -0.00514884 -0.00859241 2.22212 -7.6295e-006 -4.76837e-007 -38.5073 7.00646e-006 6.2689e-006 1.61867 -9.53691e-007 8.88178e-016 -179.96 -0.000453195 -0.000759926 1.40699 0.687967 -0.883747 50.2045 -21.7173 23.9519 2.26829 -1.90737e-006 -7.10542e-015 28.9643 -0.00853256 -0.0154338 2.09769 -2.84221e-014 5.72204e-006 -61.0221 1.45123e-006 2.62336e-006 1.53752 -9.53696e-007 -5.72204e-006 -179.96 -0.00011473 -0.000639105 4.90624 -0.00436402 -6.46185e-017 -2.45386 1.00087e-005 4.28908e-007 5.56442 -1.28356 -1.26973e-014 2.22726 3.89323e-007 1.00103e-005 2.79239 -0.00223541 8.67362e-018 -7.42619 8.63916e-006 1.12287e-005 2.79272 -2.28882e-005 -1.16415e-010 14.6121 9.69384e-006 -2.52725e-006 4.19088 0.0666047 1.67401e-015 -175.025 -0.0348358 -179.998 6.95117 -1.52588e-005 1.16415e-010 -2.72471e-009 -3.88251e-019 -5.21102e-011 
0.849866 91.8947 -1.899e-008 175.678 -90 -90 0 0 0 -89.9987 6.19063 -89.9989 -5.52396 -0.332276 1.16415e-010 -0.247893 0.00125122 179.96 6.48885 -4.26326e-014 -0.00446786 -21.9101 -2.66376e-009 5.91045e-010 7.08759 -7.6294e-006 -0.00440436 -29.0259 -0.0282458 0.0206295 4.02166 0.398873 1.16415e-010 1.97949 -1.8574e-012 -5.21564e-011 4.84413 -3.22852 -3.65581 -82.7372 -1.641 48.8262 8.51611 3.57629e-007 3.8147e-006 36.8109 0.830677 -21.4987 10.1924 -7.62941e-006 1.90735e-006 -30.869 0.654307 -26.0278 14.5949 -1.43856 0.585077 -37.2295 -6.98955 -9.17687 14.4623 -1.77636e-015 -1.90735e-006 4.1102 -3.66621 -4.0813 4.84413 -3.22854 3.65557 98.5551 -3.62396 -131.181 8.51612 2.38419e-007 -1.14441e-005 -36.5096 0.000258653 -21.4953 10.1924 -1.42109e-014 1.90735e-006 30.869 -0.654302 -26.0278 14.4624 9.53676e-007 8.88178e-015 -3.58916 3.23721 -4.0788 14.5949 1.43855 0.585071 38.5382 6.98563 -9.25431 -4.03294 -0.260669 -3.45377 -106.704 2.25304 -173.334 3.92617 -7.10544e-015 -8.88179e-016 -73.752 -4.91152e-006 -1.69313e-005 6.1232 2.84218e-014 1.77636e-015 128.547 -5.82012e-006 -7.75811e-006 9.94776 -7.38968e-013 -0.00138903 -108.175 17.8588 5.04874 0.881226 -0.110997 0.0158143 168.344 -4.50357 -178.979 2.32136 7.62946e-006 -4.76837e-007 42.849 0.0105928 0.0114202 1.63293 7.62949e-006 -4.76837e-007 -102.598 -0.000890694 -0.000187597 1.7213 9.53695e-007 0 2.13566e-008 3.21326e-006 -5.63342e-007 0.994697 0.96708 -1.09449 27.2705 -25.4921 10.6291 2.202 -4.76842e-007 1.90735e-006 38.2999 -0.00468976 0.00370159 1.84925 -3.81475e-006 1.90735e-006 -35.2777 0.0176073 -0.0285597 1.70977 3.57634e-007 -1.06581e-014 -1.39149e-007 1.21457e-007 1.94056e-008 1.37481 1.34021 -0.0715313 32.1109 2.28347 -1.4293 2.26124 7.74869e-007 -2.66454e-015 29.3749 8.75028e-006 -3.82602e-006 2.22213 7.10552e-015 3.55272e-015 -38.4629 0.00883042 -0.0111164 1.61867 -1.77638e-015 -4.76837e-007 1.92771e-007 1.19245e-005 1.23267e-007 1.407 0.688078 0.88359 41.7979 24.89 -20.6218 2.26826 0 -1.90735e-006 28.1583 0.000100704 0.00764003 2.0977 -3.81475e-006 3.8147e-006 -61.0221 8.00413e-006 7.62676e-006 1.53753 -3.81478e-006 -3.8147e-006 -1.06406e-006 1.09717e-005 -1.52916e-007 -4.03294 -0.260666 3.45377 -122.546 -0.262199 176.817 3.92616 -3.8147e-006 -1.78814e-007 -109.695 -9.72109e-006 -2.73997e-006 6.1232 -7.62942e-006 1.33227e-015 120.759 -2.03644e-005 1.64259e-007 9.94775 0 1.19209e-007 -76.2113 -14.679 -5.23353 0.881249 -0.11097 -0.0158293 156.363 4.53601 179.906 2.32135 -3.81474e-006 -9.53674e-007 43.2061 -1.17067e-006 1.6261e-006 1.63294 1.4211e-014 1.77636e-015 -43.526 3.53025e-006 1.90803e-006 1.72131 7.62953e-006 1.77636e-015 179.96 0.00026285 0.000809704 0.994736 0.967278 1.09431 35.8042 23.7813 -14.1931 2.20201 4.44094e-015 1.77636e-015 38.5592 -4.33409e-006 4.0683e-007 1.84926 -7.6295e-006 1.77636e-015 -72.6411 -7.29235e-006 8.92413e-006 1.70975 1.90739e-006 9.53674e-007 179.96 1.85257e-005 -0.000882045 1.37481 1.34026 0.07128 40.3258 -2.0544 1.74184 2.26124 -1.77638e-015 1.77636e-015 30.0914 -1.55724e-006 9.86308e-007 2.22212 -7.6295e-006 -4.76837e-007 -38.5073 6.52091e-006 6.86248e-006 1.61867 -9.53691e-007 8.88178e-016 -179.96 -0.000453195 -0.000759926 1.40699 0.687967 -0.883747 50.2045 -21.7173 23.9519 2.26829 -1.90737e-006 -1.42108e-014 28.3603 1.41953e-005 7.90253e-006 2.09769 -2.84221e-014 5.72204e-006 -61.0221 1.61984e-006 2.70153e-006 1.53752 -9.53696e-007 -5.72204e-006 -179.96 -0.00011473 -0.000639105 4.90624 -0.00436402 -1.19262e-016 -3.0254 1.0004e-005 5.28724e-007 5.56442 -1.28356 3.84462e-014 2.16838 3.79036e-007 1.00107e-005 2.79239 -0.00223541 1.01481e-016 -5.65721 8.98166e-006 1.09567e-005 2.79272 -2.28882e-005 -1.16415e-010 13.5293 9.73988e-006 -2.34362e-006 4.19088 0.0666047 2.53356e-015 -175.872 -0.0364228 -179.999 6.95117 -1.52588e-005 1.16415e-010 -2.72471e-009 -1.94126e-019 -5.21102e-011 
